<svg width="595" height="312" xmlns="http://www.w3.org/2000/svg" preserveAspectRatio="xMidYMid meet">
 <g>
  <title>background</title>
  <rect x="-1" y="-1" width="281.340893" height="148.477913" id="canvas_background" fill="none"/>
 </g>

 <g>
  <title>Layer 1</title>
  <path d="m218,128l0,37l18.5,0l18.5,0l0,-37l0,-37l-18.5,0l-18.5,0l0,37z" id="svg_2" stroke="#000" fill="#ffffff"/>
  <path d="m258,118.9l0,28.1l7.8,0c12,-0.1 21.3,-5.5 26.4,-15.5c4.8,-9.2 3.1,-22.3 -3.8,-30.4c-5.5,-6.3 -12.2,-9.3 -22.1,-9.9l-8.3,-0.5l0,28.2z" id="svg_3" fill="#ffffff" stroke="#000"/>
  <path d="m301.69632,128c0,36.3 0,37 2.65184,37s2.65184,-0.7 2.65184,-37s0,-37 -2.65184,-37s-2.65184,0.7 -2.65184,37z" id="svg_4" fill="#ffffff" stroke="#000000"/>
  <path d="m315,128l0,37l17.52224,0l17.52224,0l0,-26.8l0,-26.8l-11.08163,-6.4c-6.15646,-3.6 -14.01779,-8.2 -17.52224,-10.2l-6.44061,-3.7l0,36.9z" id="svg_5" fill="#ffffff" stroke="#000"/>
  <path d="m371.35858,101.01446l-17.01042,10.2l0,26.7l0,26.8l17.19632,0l17.19632,0l0,-37c0,-20.4 -0.09295,-37 -0.1859,-36.9c-0.18591,0 -7.90101,4.7 -17.19632,10.2z" id="svg_6" fill="#ffffff" stroke="#000"/>
 </g>
</svg>