<svg width="595" height="312" xmlns="http://www.w3.org/2000/svg" preserveAspectRatio="xMidYMid meet">

 <g>
  <title>background</title>
  <rect fill="none" id="canvas_background" height="402" width="582" y="-1" x="-1"/>
 </g>
 <g>
  <title>Layer 1</title>
  <path fill="#ffffff" stroke="#000" id="svg_2" d="m218,128l0,37l18.5,0l18.5,0l0,-37l0,-37l-18.5,0l-18.5,0l0,37z"/>
  <path stroke="#000" fill="#ffffff" id="svg_3" d="m258,118.9l0,28.1l7.8,0c12,-0.1 21.3,-5.5 26.4,-15.5c4.8,-9.2 3.1,-22.3 -3.8,-30.4c-5.5,-6.3 -12.2,-9.3 -22.1,-9.9l-8.3,-0.5l0,28.2z"/>
  <path stroke="#000" fill="none" id="svg_4" d="m301.696321,128c0,36.3 0,37 2.651839,37s2.651839,-0.7 2.651839,-37s0,-37 -2.651839,-37s-2.651839,0.7 -2.651839,37z"/>
  <path stroke="#000" fill="#ffffff" id="svg_5" d="m315,128l0,37l17.522242,0l17.522242,0l0,-26.8l0,-26.8l-11.081634,-6.4c-6.156463,-3.6 -14.017793,-8.2 -17.522242,-10.2l-6.440608,-3.7l0,36.9z"/>
  <path stroke="#000" fill="#ffffff" id="svg_6" d="m371.358576,101.014459l-17.010416,10.2l0,26.7l0,26.8l17.196322,0l17.196322,0l0,-37c0,-20.4 -0.092953,-37 -0.185906,-36.9c-0.185906,0 -7.901013,4.7 -17.196322,10.2z"/>
 </g>
</svg>