<?xml version="1.0" standalone="no"?>
<!DOCTYPE svg PUBLIC "-//W3C//DTD SVG 20010904//EN"
 "http://www.w3.org/TR/2001/REC-SVG-20010904/DTD/svg10.dtd">
<svg version="1.0" xmlns="http://www.w3.org/2000/svg"
 width="595.000000pt" height="312.000000pt" viewBox="0 0 595.000000 312.000000"
 preserveAspectRatio="xMidYMid meet">
<metadata>
Created by potrace 1.16, written by Peter Selinger 2001-2019
</metadata>
<g transform="translate(0.000000,312.000000) scale(0.100000,-0.100000)"
fill="#000000" stroke="none">
<path d="M2180 1840 l0 -370 185 0 185 0 0 370 0 370 -185 0 -185 0 0 -370z"/>
<path d="M2580 1931 l0 -281 78 0 c120 1 213 55 264 155 48 92 31 223 -38 304
-55 63 -122 93 -221 99 l-83 5 0 -282z"/>
<path d="M3030 1840 c0 -363 0 -370 20 -370 20 0 20 7 20 370 0 363 0 370 -20
370 -20 0 -20 -7 -20 -370z"/>
<path d="M3150 1840 l0 -370 185 0 185 0 0 268 0 268 -117 64 c-65 36 -148 82
-185 102 l-68 37 0 -369z"/>
<path d="M3733 2107 l-183 -102 0 -267 0 -268 185 0 185 0 0 370 c0 204 -1
370 -2 369 -2 0 -85 -47 -185 -102z"/>
<path d="M1560 1175 l0 -125 60 0 60 0 0 125 0 125 -60 0 -60 0 0 -125z"/>
<path d="M1690 1206 l0 -96 29 0 c17 0 42 11 60 26 26 21 31 33 31 68 0 52
-29 84 -84 93 l-36 6 0 -97z"/>
<path d="M1820 1175 l0 -125 65 0 65 0 0 125 0 125 -65 0 -65 0 0 -125z"/>
<path d="M2171 1273 c-13 -29 -81 -212 -81 -219 0 -2 38 -4 84 -4 l83 0 -39
106 c-21 58 -37 111 -35 118 2 6 10 -7 17 -29 7 -22 26 -75 42 -117 l30 -78
59 0 58 0 -38 108 c-22 59 -42 115 -46 125 -6 13 -19 17 -64 17 -53 0 -59 -2
-70 -27z"/>
<path d="M2400 1175 l0 -125 60 0 61 0 -3 91 -3 91 -57 34 -58 33 0 -124z"/>
<path d="M2530 1211 l0 -90 54 -30 c29 -17 56 -31 60 -31 3 0 6 54 6 120 l0
120 -60 0 -60 0 0 -89z"/>
<path d="M2670 1175 l0 -125 60 0 60 0 0 125 0 125 -60 0 -60 0 0 -125z"/>
<path d="M2800 1240 l0 -60 120 0 120 0 0 60 0 60 -120 0 -120 0 0 -60z"/>
<path d="M3504 1290 c-39 -15 -54 -50 -54 -121 0 -63 2 -69 31 -93 18 -15 43
-26 60 -26 l29 0 0 125 c0 123 0 125 -22 124 -13 0 -33 -4 -44 -9z"/>
<path d="M3580 1176 l0 -126 31 0 c20 0 40 10 60 29 26 27 29 36 29 95 0 79
-23 113 -82 123 l-38 6 0 -127z"/>
<path d="M3763 1288 c-46 -22 -68 -123 -41 -183 13 -29 55 -55 88 -55 19 0 20
6 20 125 0 123 0 125 -22 124 -13 0 -33 -5 -45 -11z"/>
<path d="M4076 1278 c4 -12 23 -67 44 -123 l37 -100 61 -3 61 -3 -25 68 c-15
37 -35 94 -46 126 l-20 57 -60 0 c-57 0 -59 -1 -52 -22z"/>
<path d="M4290 1175 l0 -125 60 0 60 0 0 125 0 125 -60 0 -60 0 0 -125z"/>
<path d="M3180 1170 l0 -120 60 0 60 0 0 89 0 89 -55 31 c-30 17 -57 31 -60
31 -3 0 -5 -54 -5 -120z"/>
<path d="M3363 1259 l-53 -31 0 -89 0 -89 60 0 60 0 0 120 c0 66 -3 120 -7
120 -5 0 -32 -14 -60 -31z"/>
<path d="M4017 1167 c-20 -56 -37 -105 -37 -109 0 -5 36 -8 80 -8 44 0 80 3
80 6 0 13 -75 214 -80 214 -3 0 -22 -46 -43 -103z"/>
<path d="M3848 1103 c-5 -102 21 -143 91 -143 l31 0 0 105 0 105 -59 0 -59 0
-4 -67z"/>
</g>
</svg>
